<svg id="visual" viewBox="0 0 900 600" width="900" height="600" xmlns="http://www.w3.org/2000/svg" xmlns:xlink="http://www.w3.org/1999/xlink" version="1.1"><rect x="0" y="0" width="900" height="600" fill="#000000"></rect><path d="M0 468L21.5 465C43 462 86 456 128.8 459.8C171.7 463.7 214.3 477.3 257.2 477.8C300 478.3 343 465.7 385.8 463.8C428.7 462 471.3 471 514.2 462.8C557 454.7 600 429.3 642.8 415.7C685.7 402 728.3 400 771.2 413C814 426 857 454 878.5 468L900 482L900 601L878.5 601C857 601 814 601 771.2 601C728.3 601 685.7 601 642.8 601C600 601 557 601 514.2 601C471.3 601 428.7 601 385.8 601C343 601 300 601 257.2 601C214.3 601 171.7 601 128.8 601C86 601 43 601 21.5 601L0 601Z" fill="#ffffffff" stroke-linecap="round" stroke-linejoin="miter"></path></svg>